# xmcd CD database file
#
# Track frame offsets:
#	150
#	12743
#	24354
#	35051
#	47246
#	61487
#	75461
#	88527
#	102208
#	117113
#	130054
#	142723
#	156044
#	171637
#	185863
#	199128
#	214350
#	228848
#	243375
#	257253
#	270149
#	282917
#	296664
#
# Disc length: 4145 seconds
#
# Revision: 0
# Processed by: cddbd v1.5.2PL0 Copyright (c) Steve Scherf et al.
# Submitted via: CDex 1.70beta2
#
DISCID=45102f17
DTITLE=Lionel Hampton - Jazz Roads CD125 - Swing - Lionel Hampton Groups Vol.1 (1937)
DYEAR=2006
DGENRE=Jazz
TTITLE0=Lionel Hampton And His Orchestra - My Last Affair (1)
TTITLE1=Lionel Hampton And His Orchestra - My Last Affair (2)
TTITLE2=Lionel Hampton And His Orchestra - Jivin' The Vibres
TTITLE3=Lionel Hampton And His Orchestra - The Mood That I'm In
TTITLE4=Lionel Hampton And His Orchestra - Stomp
TTITLE5=Lionel Hampton And His Orchestra - Buzzin' Around With The Bee
TTITLE6=Lionel Hampton And His Orchestra - Whoa Babe
TTITLE7=Lionel Hampton And His Orchestra - Stompology
TTITLE8=Lionel Hampton And His Orchestra - On The Sunny Side Of The Street
TTITLE9=Lionel Hampton And His Orchestra - Rhythm, Rhythm (I Got Rhythm)
TTITLE10=Lionel Hampton And His Orchestra - China Stomp (Chinatown)
TTITLE11=Lionel Hampton And His Orchestra - I Know That You Know
TTITLE12=Lionel Hampton And His Orchestra - Confessin'
TTITLE13=Lionel Hampton And His Orchestra - Drum Stomp (Crazy Rhythm)
TTITLE14=Lionel Hampton And His Orchestra - Piano Stomp (Shine)
TTITLE15=Lionel Hampton And His Orchestra - I Surrender, Dear
TTITLE16=Lionel Hampton And His Orchestra - The Object Of My Affection (1)
TTITLE17=Lionel Hampton And His Orchestra - The Object Of My Affection (2)
TTITLE18=Lionel Hampton And His Orchestra - Judy
TTITLE19=Lionel Hampton And His Orchestra - Baby, Won't You Please Come Home
TTITLE20=Lionel Hampton And His Orchestra - Everybody Loves My Baby
TTITLE21=Lionel Hampton And His Orchestra - After You've Gone
TTITLE22=Lionel Hampton And His Orchestra - I Just Couldn't Take It, Baby
EXTD=YEAR: 2006
EXTT0=
EXTT1=
EXTT2=
EXTT3=
EXTT4=
EXTT5=
EXTT6=
EXTT7=
EXTT8=
EXTT9=
EXTT10=
EXTT11=
EXTT12=
EXTT13=
EXTT14=
EXTT15=
EXTT16=
EXTT17=
EXTT18=
EXTT19=
EXTT20=
EXTT21=
EXTT22=
PLAYORDER=
